<svg xmlns="http://www.w3.org/2000/svg" viewBox="0 0 38.52 32.14"><defs><style>.cls-1{fill:none;stroke:#ff0;stroke-linecap:round;stroke-linejoin:round;stroke-width:2px;}</style></defs><g id="Layer_2" data-name="Layer 2"><g id="Layer_1-2" data-name="Layer 1"><path class="cls-1" d="M11.88,9.81a21.69,21.69,0,0,0-6.94,2.95A18.39,18.39,0,0,0,3.06,14.2c-2,1.76-2.64,4.23-1.5,6.39C2.3,22,3.8,23.35,6.89,23.72c.12,0,.24,0,.36,0A7.23,7.23,0,0,0,10.49,23a4.93,4.93,0,0,0,1.74-1.38"/><path class="cls-1" d="M26.64,9.75a21.76,21.76,0,0,1,6.94,3,17.89,17.89,0,0,1,1.87,1.44A5.15,5.15,0,0,1,37,20.54c-.74,1.41-2.25,2.75-5.34,3.12a2.14,2.14,0,0,1-.36,0A7.3,7.3,0,0,1,28,23a4.89,4.89,0,0,1-1.73-1.38"/><rect class="cls-1" x="6.45" y="11.38" width="25.56" height="13.96" rx="6.98" transform="translate(0.87 37.58) rotate(-90)"/><path class="cls-1" d="M17.55,5.58A4.76,4.76,0,0,0,12.48,1"/><path class="cls-1" d="M21.21,5.58A4.77,4.77,0,0,1,26.29,1"/><line class="cls-1" x1="12.28" y1="11.69" x2="26.24" y2="11.69"/><line class="cls-1" x1="12.25" y1="18.36" x2="26.21" y2="18.36"/><line class="cls-1" x1="12.48" y1="25.1" x2="25.86" y2="25.1"/></g></g></svg>