<?xml version="1.0" standalone="no"?>
<!DOCTYPE svg PUBLIC "-//W3C//DTD SVG 20010904//EN"
 "http://www.w3.org/TR/2001/REC-SVG-20010904/DTD/svg10.dtd">
<svg version="1.0" xmlns="http://www.w3.org/2000/svg"
 width="624.000000pt" height="624.000000pt" viewBox="0 0 624.000000 624.000000"
 preserveAspectRatio="xMidYMid meet">
<metadata>
Created by potrace 1.14, written by Peter Selinger 2001-2017
</metadata>
<g transform="translate(0.000000,624.000000) scale(0.100000,-0.100000)"
fill="#000000" stroke="none">
<path d="M622 5606 l-622 -622 1625 -1625 c1034 -1034 1619 -1626 1610 -1629
-8 -3 -734 -5 -1615 -5 -880 1 -1601 -1 -1601 -5 -1 -3 -2 -389 -3 -857 l-1
-853 3112 0 3113 0 0 3103 0 3104 -845 0 c-520 0 -848 -4 -852 -10 -3 -5 -6
-740 -5 -1633 0 -893 -3 -1624 -6 -1624 -2 0 -742 737 -1643 1638 -902 900
-1640 1638 -1642 1639 -1 1 -282 -278 -625 -621z"/>
</g>
</svg>
